<?xml version="1.0" encoding="UTF-8"?>
<!-- Generator: visioncortex VTracer 0.6.12 -->
<svg viewBox="0 0 2048 2048" version="1.1" xmlns="http://www.w3.org/2000/svg" width="2048" height="2048">
<path d="M0 0 C1.5 -0 3.01 -0.01 4.51 -0.01 C7.64 -0.02 10.76 -0.02 13.89 -0.02 C17.03 -0.02 20.18 -0.02 23.32 -0.04 C42.89 -0.12 62.25 0.28 81.76 2.17 C82.18 2.21 82.18 2.21 84.31 2.41 C89.3 2.9 94.28 3.45 99.26 4.04 C99.99 4.13 100.72 4.22 101.48 4.3 C106.57 4.91 111.67 5.53 116.76 6.17 C117.9 6.31 119.03 6.45 120.21 6.6 C151.66 10.61 182.89 17.21 213.63 24.92 C214.54 25.14 215.44 25.37 216.38 25.6 C227.63 28.43 238.72 31.61 249.76 35.17 C251.32 35.65 252.89 36.14 254.46 36.62 C301.64 51.21 301.64 51.21 322.55 61.28 C328.55 64.14 334.68 66.65 340.82 69.17 C348.51 72.33 356.01 75.63 363.4 79.45 C367.35 81.47 371.36 83.36 375.38 85.23 C382.23 88.43 389.02 91.74 395.76 95.17 C395.76 95.83 395.76 96.49 395.76 97.17 C396.42 97.25 397.08 97.33 397.76 97.41 C401.78 98.43 405.12 100.26 408.76 102.23 C409.51 102.64 410.27 103.04 411.05 103.46 C416.55 106.44 421.9 109.61 427.19 112.95 C430.77 115.19 434.4 117.34 438.03 119.5 C445.73 124.07 453.3 128.75 460.7 133.78 C465.06 136.74 469.51 139.44 474.1 142.01 C474.37 142.2 474.37 142.2 475.76 143.17 C475.76 143.83 475.76 144.49 475.76 145.17 C476.48 145.42 477.2 145.68 477.94 145.94 C480.95 147.25 483.26 148.82 485.88 150.79 C486.85 151.51 487.81 152.23 488.81 152.97 C489.78 153.69 490.76 154.42 491.76 155.17 C493.53 156.44 495.3 157.71 497.07 158.98 C502.09 162.62 506.97 166.44 511.81 170.31 C514.53 172.48 517.24 174.51 520.18 176.37 C520.6 176.67 520.6 176.67 522.76 178.17 C522.76 178.83 522.76 179.49 522.76 180.17 C523.06 180.31 523.06 180.31 524.57 181.04 C526.76 182.17 526.76 182.17 529.76 184.17 C529.76 184.83 529.76 185.49 529.76 186.17 C530.02 186.28 530.02 186.28 531.32 186.86 C534.65 188.65 537.9 190.67 540.76 193.17 C540.76 193.83 540.76 194.49 540.76 195.17 C541.35 195.44 541.95 195.71 542.56 195.99 C544.7 197.14 546.17 198.29 547.92 199.95 C548.49 200.48 549.05 201.01 549.63 201.56 C550.21 202.11 550.79 202.66 551.38 203.23 C557.52 209.05 557.52 209.05 559.76 210.17 C559.76 210.83 559.76 211.49 559.76 212.17 C560.35 212.44 560.95 212.72 561.56 213 C563.68 214.13 565.14 215.25 566.88 216.88 C567.49 217.45 568.11 218.02 568.73 218.61 C569.07 218.93 569.07 218.93 570.76 220.54 C571.47 221.21 572.17 221.89 572.9 222.58 C579.98 229.34 586.95 236.22 593.89 243.13 C595.18 244.41 596.47 245.68 597.76 246.96 C599.59 248.77 601.41 250.59 603.23 252.41 C603.79 252.96 604.35 253.51 604.92 254.08 C608.76 257.94 608.76 257.94 608.76 260.17 C609.75 260.5 610.74 260.83 611.76 261.17 C613.2 262.59 613.2 262.59 614.76 264.48 C617.84 268.12 621.02 271.66 624.26 275.17 C628.5 279.78 632.68 284.42 636.76 289.17 C637.21 289.69 637.66 290.2 638.12 290.74 C639.65 292.5 641.17 294.27 642.7 296.04 C643.19 296.62 643.69 297.19 644.2 297.78 C647.76 301.94 647.76 301.94 647.76 304.17 C648.42 304.17 649.08 304.17 649.76 304.17 C653.76 308.64 653.76 308.64 653.76 311.17 C654.42 311.17 655.08 311.17 655.76 311.17 C656.09 312.49 656.42 313.81 656.76 315.17 C657.42 315.17 658.08 315.17 658.76 315.17 C660.11 316.71 660.11 316.71 661.66 318.87 C661.95 319.26 661.95 319.26 663.4 321.26 C663.71 321.69 663.71 321.69 665.26 323.86 C666.53 325.62 667.81 327.38 669.09 329.14 C669.4 329.57 669.4 329.57 670.99 331.76 C673.25 334.84 675.59 337.85 677.95 340.86 C683.03 347.41 687.69 354.23 692.34 361.09 C693.92 363.4 695.53 365.69 697.14 367.97 C700.86 373.28 704.42 378.67 707.95 384.11 C708.6 385.11 709.25 386.11 709.92 387.14 C734.32 424.75 755.94 463.61 774.51 504.43 C776.15 508.02 777.82 511.6 779.51 515.17 C782.19 520.9 784.76 526.67 787.27 532.48 C788.87 536.16 790.53 539.8 792.26 543.42 C794.91 549.2 796.95 555.19 799 561.21 C800.77 566.42 802.66 571.57 804.61 576.71 C807.86 585.31 810.81 594 813.7 602.73 C813.96 603.51 814.22 604.3 814.48 605.11 C821.62 626.61 828.06 648.23 833.76 670.17 C834.08 671.42 834.41 672.68 834.75 673.97 C839.66 692.93 844.04 711.94 847.76 731.17 C847.88 731.79 847.88 731.79 848.5 734.96 C857.53 781.58 863.26 828.75 865.76 876.17 C865.82 877.27 865.87 878.37 865.93 879.5 C870.33 967.05 859.82 1056.2 838.96 1141.21 C838.12 1144.68 837.29 1148.15 836.48 1151.62 C834.25 1161.16 831.92 1170.59 828.95 1179.92 C828.61 1181 828.27 1182.08 827.92 1183.2 C827.21 1185.43 826.51 1187.67 825.8 1189.9 C824.8 1193.05 823.8 1196.2 822.82 1199.36 C815.12 1223.8 807.12 1248.31 797.11 1271.91 C795.42 1275.99 793.84 1280.11 792.26 1284.23 C790.03 1290.01 787.69 1295.67 785.06 1301.28 C783.72 1304.25 782.49 1307.25 781.27 1310.27 C778.34 1317.55 775.15 1324.6 771.56 1331.59 C769.93 1334.78 768.42 1338.02 766.93 1341.28 C763.02 1349.77 758.67 1357.93 754.05 1366.05 C752.57 1368.68 751.16 1371.33 749.83 1374.04 C747.37 1379.03 744.59 1383.84 741.82 1388.67 C741.31 1389.57 740.8 1390.46 740.27 1391.39 C737.55 1396.14 734.75 1400.82 731.82 1405.44 C730.46 1407.65 729.26 1409.92 728.07 1412.23 C724.85 1418.21 721.11 1423.76 717.31 1429.38 C715.02 1432.76 712.82 1436.21 710.63 1439.67 C704.56 1449.24 697.95 1458.47 691.44 1467.74 C690.04 1469.76 688.71 1471.79 687.4 1473.86 C687.13 1474.24 687.13 1474.24 685.76 1476.17 C685.1 1476.17 684.44 1476.17 683.76 1476.17 C683.53 1476.85 683.3 1477.53 683.07 1478.23 C681.45 1481.87 679.43 1485.2 676.76 1488.17 C676.1 1488.17 675.44 1488.17 674.76 1488.17 C674.65 1488.5 674.65 1488.5 674.13 1490.2 C672.27 1494.23 669.6 1497.29 666.76 1500.67 C665.58 1502.08 664.41 1503.5 663.24 1504.92 C662.65 1505.63 662.07 1506.33 661.47 1507.06 C658.48 1510.74 655.64 1514.54 652.83 1518.36 C651.85 1519.66 650.81 1520.92 649.76 1522.17 C649.1 1522.17 648.44 1522.17 647.76 1522.17 C647.5 1522.73 647.24 1523.29 646.98 1523.87 C645.62 1526.44 644.03 1528.62 642.26 1530.92 C641.65 1531.72 641.04 1532.52 640.41 1533.34 C639.87 1533.94 639.32 1534.55 638.76 1535.17 C638.1 1535.17 637.44 1535.17 636.76 1535.17 C636.53 1535.71 636.31 1536.26 636.07 1536.82 C634.35 1539.9 632.11 1542.21 629.7 1544.79 C624.86 1549.97 624.86 1549.97 623.76 1552.17 C623.1 1552.17 622.44 1552.17 621.76 1552.17 C621.5 1552.75 621.24 1553.34 620.97 1553.94 C619.67 1556.34 618.26 1557.88 616.31 1559.78 C615.62 1560.45 614.94 1561.12 614.24 1561.82 C613.52 1562.51 612.81 1563.2 612.07 1563.92 C607.28 1568.59 602.66 1573.32 598.3 1578.39 C596.42 1580.56 594.46 1582.63 592.45 1584.67 C591.79 1585.34 591.13 1586.01 590.46 1586.7 C588.76 1588.17 588.76 1588.17 586.76 1588.17 C586.76 1588.83 586.76 1589.49 586.76 1590.17 C586.1 1590.17 585.44 1590.17 584.76 1590.17 C584.76 1590.83 584.76 1591.49 584.76 1592.17 C583.32 1593.58 583.32 1593.58 581.32 1595.23 C578.15 1597.92 575.17 1600.7 572.26 1603.67 C568.91 1607.06 565.46 1610.26 561.84 1613.36 C559.51 1615.38 557.23 1617.46 554.95 1619.54 C550.54 1623.52 546 1627.29 541.38 1631.02 C538.27 1633.57 535.28 1636.24 532.32 1638.95 C530.76 1640.17 530.76 1640.17 528.76 1640.17 C528.76 1640.83 528.76 1641.49 528.76 1642.17 C527.06 1643.57 525.3 1644.89 523.51 1646.17 C522.53 1646.87 521.56 1647.57 520.55 1648.29 C518.32 1649.79 516.2 1651.05 513.76 1652.17 C513.76 1652.83 513.76 1653.49 513.76 1654.17 C511.89 1655.64 511.89 1655.64 509.45 1657.23 C508.64 1657.76 507.84 1658.28 507.02 1658.83 C504.76 1660.17 504.76 1660.17 501.76 1661.17 C501.76 1661.83 501.76 1662.49 501.76 1663.17 C499.89 1664.64 499.89 1664.64 497.45 1666.23 C496.64 1666.76 495.84 1667.28 495.02 1667.83 C492.76 1669.17 492.76 1669.17 489.76 1670.17 C489.76 1670.83 489.76 1671.49 489.76 1672.17 C487.86 1673.68 487.86 1673.68 485.38 1675.29 C484.57 1675.83 483.76 1676.37 482.92 1676.93 C480.76 1678.17 480.76 1678.17 478.76 1678.17 C478.76 1678.83 478.76 1679.49 478.76 1680.17 C476.43 1681.76 474.11 1683.22 471.7 1684.67 C470.21 1685.57 468.73 1686.48 467.25 1687.39 C466.5 1687.85 465.75 1688.31 464.97 1688.79 C461.68 1690.84 458.47 1693 455.26 1695.17 C439.45 1705.8 423.13 1715.79 406.33 1724.79 C404.46 1725.79 402.6 1726.82 400.75 1727.86 C399.76 1728.42 398.78 1728.97 397.76 1729.54 C396.87 1730.05 395.98 1730.55 395.07 1731.07 C392.76 1732.17 392.76 1732.17 389.76 1732.17 C389.76 1732.83 389.76 1733.49 389.76 1734.17 C388.86 1734.62 387.96 1735.07 387.03 1735.53 C386.42 1735.84 385.81 1736.14 385.19 1736.45 C383.79 1737.15 382.39 1737.85 380.99 1738.55 C376.8 1740.64 372.61 1742.75 368.43 1744.87 C357.87 1750.21 347.28 1755.34 336.41 1760.02 C333.31 1761.36 330.21 1762.72 327.12 1764.08 C314.92 1769.4 302.75 1774.48 290.12 1778.67 C287.06 1779.69 284.07 1780.83 281.07 1782.06 C212.37 1809.91 135.43 1823.37 61.76 1828.17 C61.32 1828.2 61.32 1828.2 59.13 1828.35 C40.1 1829.6 21 1829.36 1.95 1829.19 C0.04 1829.17 -1.86 1829.16 -3.77 1829.15 C-37.13 1828.83 -71.42 1825.03 -104.24 1819.17 C-105.41 1818.96 -106.57 1818.75 -107.78 1818.54 C-123.2 1815.76 -138.52 1812.52 -153.8 1809.04 C-154.17 1808.96 -154.17 1808.96 -156 1808.55 C-164.4 1806.64 -172.69 1804.54 -180.96 1802.12 C-184.04 1801.23 -187.12 1800.38 -190.22 1799.55 C-233.07 1787.93 -275 1771.85 -315.24 1753.17 C-316.24 1752.71 -317.24 1752.24 -318.27 1751.77 C-335.14 1743.93 -351.45 1735.19 -367.76 1726.24 C-372.21 1723.8 -376.67 1721.4 -381.24 1719.17 C-381.24 1718.51 -381.24 1717.85 -381.24 1717.17 C-381.8 1717.06 -382.35 1716.96 -382.92 1716.85 C-385.74 1716.02 -387.91 1714.73 -390.43 1713.21 C-391.45 1712.6 -392.47 1711.99 -393.52 1711.36 C-394.6 1710.7 -395.69 1710.04 -396.8 1709.36 C-397.92 1708.68 -399.04 1708 -400.19 1707.31 C-414.2 1698.8 -428.12 1690.25 -441.34 1680.56 C-444.35 1678.36 -447.36 1676.17 -450.38 1673.99 C-451.96 1672.84 -453.54 1671.7 -455.12 1670.55 C-458.12 1668.36 -461.05 1666.28 -464.27 1664.41 C-464.92 1664 -465.57 1663.59 -466.24 1663.17 C-466.24 1662.51 -466.24 1661.85 -466.24 1661.17 C-466.81 1660.89 -467.39 1660.61 -467.98 1660.32 C-470.21 1659.19 -472.35 1657.97 -474.49 1656.67 C-475.2 1656.25 -475.9 1655.82 -476.63 1655.39 C-477.16 1654.98 -477.69 1654.58 -478.24 1654.17 C-478.24 1653.51 -478.24 1652.85 -478.24 1652.17 C-478.52 1652.04 -478.52 1652.04 -479.9 1651.41 C-488.74 1646.71 -496.49 1639.37 -504.06 1632.88 C-507.07 1630.31 -510.12 1627.79 -513.18 1625.29 C-514.06 1624.57 -514.94 1623.85 -515.85 1623.11 C-517.31 1621.92 -518.78 1620.74 -520.26 1619.57 C-521.62 1618.48 -522.94 1617.33 -524.24 1616.17 C-524.24 1615.51 -524.24 1614.85 -524.24 1614.17 C-524.84 1613.9 -525.43 1613.64 -526.04 1613.37 C-528.32 1612.12 -529.72 1610.86 -531.49 1608.98 C-533.86 1606.53 -536.27 1604.24 -538.87 1602.04 C-543.41 1598.14 -547.58 1593.89 -551.76 1589.61 C-554.16 1587.18 -556.39 1585.07 -559.24 1583.17 C-559.24 1582.51 -559.24 1581.85 -559.24 1581.17 C-560.23 1580.84 -561.22 1580.51 -562.24 1580.17 C-562.24 1579.51 -562.24 1578.85 -562.24 1578.17 C-562.9 1578.17 -563.56 1578.17 -564.24 1578.17 C-565.58 1576.51 -566.91 1574.84 -568.24 1573.17 C-569.01 1572.57 -569.77 1571.97 -570.55 1571.36 C-573.62 1568.86 -576.04 1566.08 -578.59 1563.07 C-580.24 1561.17 -580.24 1561.17 -581.95 1559.55 C-583.24 1558.17 -583.24 1558.17 -583.24 1556.17 C-583.83 1555.92 -584.41 1555.67 -585.01 1555.41 C-587.56 1553.99 -589.04 1552.44 -590.93 1550.23 C-591.53 1549.54 -592.13 1548.85 -592.75 1548.14 C-594.24 1546.17 -594.24 1546.17 -595.24 1543.17 C-595.9 1543.17 -596.56 1543.17 -597.24 1543.17 C-598.66 1541.6 -600 1539.96 -601.3 1538.29 C-604.35 1534.48 -607.45 1530.77 -610.74 1527.17 C-624.24 1512.31 -624.24 1512.31 -624.24 1509.17 C-624.9 1509.17 -625.56 1509.17 -626.24 1509.17 C-626.57 1507.85 -626.9 1506.53 -627.24 1505.17 C-627.9 1505.17 -628.56 1505.17 -629.24 1505.17 C-630.73 1503.5 -630.73 1503.5 -632.45 1501.2 C-632.76 1500.79 -632.76 1500.79 -634.34 1498.7 C-634.97 1497.86 -635.59 1497.03 -636.24 1496.17 C-637.35 1494.76 -638.45 1493.35 -639.57 1491.95 C-647.47 1481.91 -655.03 1471.71 -662.24 1461.17 C-662.52 1460.76 -662.52 1460.76 -663.93 1458.71 C-665.62 1456.22 -667.31 1453.73 -668.99 1451.23 C-669.52 1450.45 -670.04 1449.68 -670.59 1448.88 C-671.07 1448.16 -671.55 1447.44 -672.04 1446.7 C-672.47 1446.07 -672.89 1445.43 -673.33 1444.78 C-674.24 1443.17 -674.24 1443.17 -674.24 1441.17 C-674.9 1441.17 -675.56 1441.17 -676.24 1441.17 C-677.39 1439.73 -677.39 1439.73 -678.62 1437.74 C-679.07 1437.03 -679.51 1436.31 -679.97 1435.58 C-680.2 1435.2 -680.2 1435.2 -681.37 1433.29 C-681.6 1432.92 -681.6 1432.92 -682.79 1431.03 C-686.24 1425.44 -686.24 1425.44 -686.24 1423.17 C-686.9 1423.17 -687.56 1423.17 -688.24 1423.17 C-688.53 1422.63 -688.82 1422.1 -689.12 1421.55 C-693.87 1412.92 -698.94 1404.54 -704.34 1396.3 C-707.15 1391.68 -709.68 1386.92 -712.24 1382.17 C-712.79 1381.16 -713.33 1380.16 -713.89 1379.12 C-717.46 1372.51 -721.02 1365.89 -724.57 1359.27 C-726 1356.61 -727.44 1353.95 -728.87 1351.3 C-733.65 1342.4 -738.07 1333.38 -742.3 1324.2 C-743.21 1322.24 -744.13 1320.28 -745.05 1318.33 C-748.92 1310.13 -752.63 1301.87 -756.21 1293.54 C-757.33 1290.97 -758.46 1288.41 -759.6 1285.85 C-776.49 1247.37 -789.99 1206.74 -800.48 1166.06 C-801.2 1163.33 -801.95 1160.62 -802.72 1157.91 C-807.37 1141.46 -811.11 1124.81 -814.81 1108.13 C-815.21 1106.29 -815.63 1104.45 -816.05 1102.61 C-818.1 1093.33 -819.66 1084 -821.12 1074.61 C-821.24 1073.79 -821.37 1072.97 -821.5 1072.13 C-834.74 987.31 -838.15 902.82 -828.49 817.39 C-828.26 815.31 -828.03 813.23 -827.81 811.16 C-823.67 772.44 -816.54 733.96 -807.24 696.17 C-806.81 694.35 -806.38 692.54 -805.95 690.72 C-794.92 644.62 -779.97 598.98 -761.56 555.31 C-760.2 552.07 -758.85 548.82 -757.51 545.56 C-748.18 523 -737.97 500.9 -726.46 479.36 C-724.55 475.76 -722.72 472.14 -720.93 468.48 C-718.99 464.56 -716.88 460.87 -714.51 457.2 C-712.51 453.99 -710.76 450.66 -708.96 447.34 C-703.65 437.55 -698.24 427.88 -692.07 418.6 C-690.43 416.12 -689.19 414.01 -688.24 411.17 C-687.58 411.17 -686.92 411.17 -686.24 411.17 C-685.91 409.52 -685.58 407.87 -685.24 406.17 C-684.58 406.17 -683.92 406.17 -683.24 406.17 C-682.95 405.43 -682.66 404.68 -682.37 403.92 C-681.42 401.6 -680.39 399.39 -679.24 397.17 C-678.58 397.17 -677.92 397.17 -677.24 397.17 C-676.98 396.45 -676.72 395.74 -676.46 395 C-675.17 392.01 -673.64 389.55 -671.8 386.86 C-671.09 385.8 -670.38 384.75 -669.64 383.67 C-668.84 382.5 -668.04 381.34 -667.24 380.17 C-666.37 378.89 -665.49 377.6 -664.62 376.32 C-661.85 372.26 -659.05 368.21 -656.24 364.17 C-655.84 363.59 -655.44 363.02 -655.03 362.43 C-648.94 353.7 -642.53 345.23 -636.04 336.8 C-632.07 331.64 -628.3 326.41 -624.69 321 C-624.45 320.69 -624.45 320.69 -623.24 319.17 C-622.58 319.17 -621.92 319.17 -621.24 319.17 C-620.99 318.6 -620.73 318.04 -620.47 317.46 C-619.09 314.88 -617.47 312.8 -615.62 310.54 C-614.9 309.66 -614.18 308.77 -613.43 307.86 C-612.71 306.97 -611.99 306.08 -611.24 305.17 C-610.01 303.61 -608.78 302.04 -607.55 300.48 C-598.79 289.54 -589.4 279.14 -579.83 268.9 C-578.71 267.68 -577.62 266.45 -576.53 265.21 C-569.12 256.78 -561.14 248.91 -553.19 240.99 C-550.68 238.48 -548.17 235.96 -545.66 233.45 C-544.04 231.83 -542.42 230.21 -540.8 228.59 C-540.06 227.85 -539.32 227.11 -538.56 226.35 C-533.95 221.75 -529.18 217.41 -524.24 213.17 C-522.55 211.65 -520.86 210.13 -519.18 208.61 C-517.53 207.13 -515.89 205.65 -514.24 204.17 C-513.89 203.85 -513.89 203.85 -512.12 202.26 C-507.48 198.17 -507.48 198.17 -505.24 198.17 C-505.24 197.51 -505.24 196.85 -505.24 196.17 C-503.38 194.61 -501.51 193.16 -499.55 191.73 C-494.88 188.23 -490.35 184.62 -485.93 180.79 C-479.34 175.14 -472.44 169.94 -465.45 164.8 C-463.1 163.06 -460.76 161.32 -458.42 159.58 C-433.67 141.17 -433.67 141.17 -430.24 141.17 C-430.24 140.51 -430.24 139.85 -430.24 139.17 C-429.71 138.89 -429.17 138.61 -428.62 138.32 C-424.48 136.09 -420.56 133.75 -416.74 130.98 C-411.03 126.9 -405.01 123.43 -398.94 119.91 C-394.85 117.54 -390.81 115.1 -386.78 112.64 C-377.75 107.17 -368.61 102.05 -359.24 97.21 C-356.62 95.85 -354.03 94.45 -351.44 93.06 C-344.92 89.55 -338.35 86.17 -331.71 82.89 C-329.36 81.72 -327.02 80.55 -324.68 79.35 C-318.31 76.12 -311.95 73.14 -305.33 70.46 C-301.96 69.05 -298.67 67.5 -295.37 65.92 C-280.64 58.95 -265.48 53.1 -250.07 47.84 C-246.94 46.77 -243.84 45.65 -240.75 44.46 C-227.96 39.54 -214.92 35.82 -201.72 32.15 C-197.42 30.94 -193.13 29.66 -188.85 28.37 C-169.62 22.63 -150.09 18.63 -130.41 14.79 C-127.34 14.19 -124.28 13.56 -121.21 12.92 C-81.67 4.81 -40.37 0.02 0 0 Z M-147.73 135.53 C-151.24 136.42 -154.77 137.2 -158.3 137.98 C-184.21 143.92 -209.72 152.34 -234.31 162.38 C-239.04 164.31 -243.78 166.08 -248.62 167.73 C-254.39 169.76 -259.73 172.29 -265.16 175.09 C-270.19 177.68 -275.32 180.06 -280.43 182.48 C-290.85 187.43 -301.09 192.69 -311.24 198.17 C-312.31 198.74 -313.38 199.32 -314.48 199.91 C-316.25 200.88 -318.01 201.84 -319.78 202.81 C-321.49 203.75 -323.21 204.69 -324.93 205.62 C-329.95 208.33 -334.96 211.1 -339.93 213.92 C-340.94 214.49 -341.96 215.06 -343 215.65 C-343.74 216.15 -344.48 216.65 -345.24 217.17 C-345.24 217.83 -345.24 218.49 -345.24 219.17 C-345.81 219.28 -346.38 219.4 -346.97 219.52 C-360.5 223.4 -374.44 236.23 -385.78 244.32 C-386.47 244.81 -387.15 245.3 -387.86 245.8 C-388.46 246.23 -389.07 246.66 -389.69 247.11 C-391.24 248.17 -391.24 248.17 -393.24 249.17 C-393.24 249.83 -393.24 250.49 -393.24 251.17 C-393.58 251.28 -393.58 251.28 -395.3 251.86 C-399.79 253.86 -403.67 256.55 -407.1 260.07 C-410.39 263.29 -414.2 265.74 -417.98 268.36 C-418.72 268.96 -419.47 269.55 -420.24 270.17 C-420.24 270.83 -420.24 271.49 -420.24 272.17 C-420.61 272.29 -420.61 272.29 -422.45 272.91 C-425.54 274.3 -427.41 275.9 -429.87 278.23 C-436 283.91 -442.4 289.26 -449.07 294.3 C-449.78 294.92 -450.5 295.53 -451.24 296.17 C-451.24 296.83 -451.24 297.49 -451.24 298.17 C-451.8 298.42 -452.37 298.66 -452.95 298.92 C-455.63 300.38 -457.71 302.14 -459.99 304.17 C-460.79 304.87 -461.59 305.57 -462.41 306.29 C-464.24 308.17 -464.24 308.17 -464.24 310.17 C-465.23 310.5 -466.22 310.83 -467.24 311.17 C-467.24 311.83 -467.24 312.49 -467.24 313.17 C-467.78 313.38 -468.32 313.59 -468.87 313.8 C-472.15 315.69 -474.57 318.29 -477.18 320.98 C-477.69 321.5 -478.2 322.02 -478.73 322.56 C-479.76 323.6 -480.78 324.64 -481.8 325.69 C-485.01 328.98 -488.28 332.21 -491.55 335.44 C-502.76 346.55 -502.76 346.55 -507.48 352.12 C-509.33 354.27 -511.25 356.35 -513.18 358.43 C-517.96 363.59 -522.52 368.85 -526.93 374.33 C-529.01 376.89 -531.13 379.4 -533.28 381.91 C-539.19 388.81 -544.77 395.91 -550.24 403.17 C-550.83 403.91 -551.42 404.65 -552.02 405.41 C-553.24 407.17 -553.24 407.17 -553.24 409.17 C-553.9 409.17 -554.56 409.17 -555.24 409.17 C-556.61 410.8 -556.61 410.8 -558.18 413.09 C-558.47 413.5 -558.47 413.5 -559.94 415.62 C-560.56 416.52 -561.17 417.43 -561.8 418.36 C-562.43 419.26 -563.06 420.17 -563.7 421.11 C-564.96 422.94 -566.22 424.77 -567.48 426.61 C-569.01 428.83 -570.56 431.05 -572.13 433.25 C-572.55 433.84 -572.96 434.42 -573.39 435.03 C-574.48 436.57 -575.58 438.1 -576.67 439.64 C-578.08 441.91 -578.82 443.55 -579.24 446.17 C-579.9 446.17 -580.56 446.17 -581.24 446.17 C-585.24 451.46 -585.24 451.46 -585.24 455.17 C-585.9 455.17 -586.56 455.17 -587.24 455.17 C-587.9 456.28 -588.56 457.4 -589.24 458.54 C-589.61 459.17 -589.98 459.8 -590.37 460.44 C-591.24 462.17 -591.24 462.17 -591.24 464.17 C-591.9 464.17 -592.56 464.17 -593.24 464.17 C-594.58 466.08 -594.58 466.08 -596.11 468.73 C-596.66 469.7 -597.22 470.66 -597.79 471.65 C-598.38 472.66 -598.96 473.68 -599.55 474.73 C-606.03 486 -606.03 486 -608.91 489.88 C-611.08 492.81 -612.67 495.85 -614.25 499.14 C-615.91 502.54 -617.81 505.81 -619.68 509.11 C-620.07 509.8 -620.46 510.49 -620.87 511.21 C-622.54 514.18 -624.23 517.15 -625.94 520.1 C-626.39 520.88 -626.84 521.67 -627.3 522.48 C-627.69 523.14 -628.07 523.79 -628.46 524.47 C-629.24 526.17 -629.24 526.17 -629.24 529.17 C-629.9 529.17 -630.56 529.17 -631.24 529.17 C-635.78 538.13 -640.2 547.12 -644.44 556.22 C-646.21 560.01 -648.02 563.76 -649.93 567.48 C-652.15 571.86 -654.01 576.36 -655.86 580.9 C-657.39 584.52 -659.05 588.06 -660.74 591.61 C-663.93 598.34 -666.65 605.18 -669.24 612.17 C-670.09 614.4 -670.95 616.63 -671.8 618.86 C-672.22 619.94 -672.63 621.02 -673.06 622.13 C-674.08 624.76 -675.16 627.37 -676.24 629.98 C-678.24 634.93 -679.8 639.99 -681.32 645.11 C-682.39 648.66 -683.6 652.08 -685.04 655.5 C-688.26 663.42 -690.56 671.67 -692.99 679.86 C-693.26 680.73 -693.52 681.61 -693.79 682.52 C-698.7 698.97 -703.2 715.48 -707.24 732.17 C-707.49 733.17 -707.73 734.17 -707.98 735.2 C-715.82 767.83 -721.59 801.1 -724.04 834.59 C-724.31 838 -724.67 841.39 -725.04 844.79 C-728 873.12 -727.49 901.73 -727.24 930.17 C-727.24 930.94 -727.23 931.72 -727.22 932.52 C-726.89 971.38 -722.83 1009.89 -716.24 1048.17 C-716.12 1048.89 -715.99 1049.62 -715.87 1050.37 C-710.19 1083.35 -702.93 1116.17 -693.15 1148.2 C-692.18 1151.38 -691.23 1154.57 -690.27 1157.75 C-686.81 1169.28 -683.1 1180.64 -678.84 1191.89 C-677.29 1195.99 -675.9 1200.13 -674.55 1204.29 C-673.03 1208.95 -671.34 1213.38 -669.27 1217.81 C-667.96 1220.82 -666.89 1223.88 -665.8 1226.98 C-662.61 1236.06 -659 1244.8 -654.61 1253.36 C-652.94 1256.79 -651.43 1260.29 -649.93 1263.79 C-647.18 1270.19 -644.18 1276.42 -641.03 1282.62 C-638.6 1287.41 -636.36 1292.24 -634.24 1297.17 C-633.58 1297.17 -632.92 1297.17 -632.24 1297.17 C-632.16 1297.83 -632.07 1298.5 -631.99 1299.18 C-631.01 1303.09 -629.21 1306.41 -627.3 1309.92 C-626.91 1310.66 -626.51 1311.4 -626.1 1312.16 C-622.39 1319.02 -618.44 1325.73 -614.45 1332.43 C-612.79 1335.23 -611.17 1338.05 -609.62 1340.92 C-601.04 1356.57 -601.04 1356.57 -596.24 1362.17 C-595.58 1362.17 -594.92 1362.17 -594.24 1362.17 C-593.97 1361.5 -593.71 1360.83 -593.43 1360.14 C-590.81 1353.71 -588 1347.39 -585.05 1341.11 C-584.71 1340.37 -584.37 1339.63 -584.01 1338.87 C-583.68 1338.17 -583.35 1337.48 -583.01 1336.76 C-582.72 1336.14 -582.43 1335.52 -582.12 1334.88 C-581.24 1333.17 -581.24 1333.17 -579.24 1330.17 C-579.24 1329.18 -579.24 1328.19 -579.24 1327.17 C-578.58 1327.17 -577.92 1327.17 -577.24 1327.17 C-576.93 1326.5 -576.61 1325.84 -576.29 1325.16 C-573.96 1320.36 -571.63 1316.3 -568.24 1312.17 C-567.49 1310.81 -566.75 1309.44 -566.03 1308.07 C-563.32 1303.13 -560.09 1298.77 -556.62 1294.36 C-555.48 1292.89 -554.34 1291.43 -553.2 1289.96 C-552.71 1289.33 -552.21 1288.69 -551.7 1288.04 C-551.22 1287.42 -550.74 1286.8 -550.24 1286.17 C-549.96 1285.82 -549.96 1285.82 -548.56 1284.06 C-547.24 1282.17 -547.24 1282.17 -547.24 1280.17 C-546.58 1280.17 -545.92 1280.17 -545.24 1280.17 C-543.87 1278.61 -542.57 1276.99 -541.3 1275.36 C-529.12 1260.11 -529.12 1260.11 -523.24 1257.17 C-523.24 1256.51 -523.24 1255.85 -523.24 1255.17 C-522.93 1255.04 -522.93 1255.04 -521.37 1254.42 C-518.87 1252.95 -518.41 1251.75 -517.24 1249.17 C-520.72 1248.38 -524.2 1247.58 -527.68 1246.79 C-528.17 1246.68 -528.17 1246.68 -530.63 1246.12 C-536.5 1244.79 -542.37 1243.47 -548.24 1242.17 C-548.24 1241.18 -548.24 1240.19 -548.24 1239.17 C-547.65 1239.04 -547.07 1238.9 -546.46 1238.77 C-538.75 1236.68 -530.8 1231.61 -524.24 1227.17 C-524.24 1226.51 -524.24 1225.85 -524.24 1225.17 C-523.7 1225.07 -523.16 1224.98 -522.61 1224.88 C-512.13 1221.72 -501.98 1212.64 -493.24 1206.17 C-492.66 1205.74 -492.07 1205.31 -491.47 1204.86 C-484.96 1200.03 -478.79 1195.11 -473.24 1189.17 C-472.44 1188.38 -471.63 1187.6 -470.8 1186.79 C-451.32 1166.83 -441.85 1143.01 -441.93 1115.17 C-441.92 1114.63 -441.92 1114.63 -441.88 1111.88 C-441.88 1102.23 -443.57 1093.24 -447.55 1084.42 C-458.73 1058.65 -467.44 1030.88 -467.38 1002.56 C-467.38 1002.11 -467.38 1002.11 -467.38 999.87 C-467.38 998 -467.38 996.13 -467.37 994.26 C-467.37 991.44 -467.37 988.62 -467.38 985.8 C-467.38 976.21 -467.22 966.72 -466.24 957.17 C-467.23 957.5 -468.22 957.83 -469.24 958.17 C-469.24 958.83 -469.24 959.49 -469.24 960.17 C-469.88 960.44 -470.52 960.7 -471.18 960.98 C-473.24 962.17 -473.24 962.17 -474.24 965.17 C-475.23 965.5 -476.22 965.83 -477.24 966.17 C-478.93 967.84 -478.93 967.84 -480.68 969.92 C-481.29 970.64 -481.9 971.36 -482.52 972.1 C-482.81 972.44 -482.81 972.44 -484.24 974.17 C-485.05 975.12 -485.85 976.07 -486.68 977.04 C-488.24 979.17 -488.24 979.17 -488.24 981.17 C-488.9 981.17 -489.56 981.17 -490.24 981.17 C-490.57 982.49 -490.9 983.81 -491.24 985.17 C-491.9 985.17 -492.56 985.17 -493.24 985.17 C-493.24 985.83 -493.24 986.49 -493.24 987.17 C-493.9 987.17 -494.56 987.17 -495.24 987.17 C-495.24 986.85 -495.24 986.85 -495.21 985.23 C-495.2 984.36 -495.19 983.5 -495.18 982.61 C-495.17 982.18 -495.17 982.18 -495.14 980.04 C-495.24 977.17 -495.24 977.17 -495.74 973.98 C-496.25 970.08 -496.42 966.27 -496.45 962.35 C-496.45 961.62 -496.46 960.88 -496.47 960.13 C-496.67 933.18 -494.67 906.62 -484.16 881.41 C-482.97 878.5 -481.98 875.53 -480.99 872.54 C-474.41 853.97 -463.98 836.25 -451.56 821.02 C-450.24 819.17 -450.24 819.17 -450.24 817.17 C-459.2 818.29 -467.14 822.4 -475.24 826.17 C-475.24 826.83 -475.24 827.49 -475.24 828.17 C-475.53 828.23 -475.53 828.23 -476.99 828.54 C-479.27 829.17 -481.17 830.06 -483.24 831.17 C-483.24 831.83 -483.24 832.49 -483.24 833.17 C-483.98 833.44 -484.73 833.7 -485.49 833.98 C-488.12 835.11 -490 836.42 -492.24 838.17 C-490.69 826.5 -487.99 816.49 -483.23 805.73 C-482.24 803.17 -482.24 803.17 -482.24 800.17 C-481.58 800.17 -480.92 800.17 -480.24 800.17 C-479.91 798.19 -479.58 796.21 -479.24 794.17 C-478.58 794.17 -477.92 794.17 -477.24 794.17 C-476.45 792.61 -475.66 791.04 -474.87 789.48 C-474.65 789.05 -474.65 789.05 -473.53 786.84 C-472.32 784.32 -471.25 781.78 -470.24 779.17 C-469.58 779.17 -468.92 779.17 -468.24 779.17 C-466.73 777.45 -466.73 777.45 -464.99 775.11 C-462.7 772.07 -460.39 769.07 -457.93 766.17 C-457.46 765.61 -456.99 765.05 -456.5 764.48 C-455.24 763.17 -455.24 763.17 -453.24 762.17 C-453.24 761.51 -453.24 760.85 -453.24 760.17 C-452.68 759.91 -452.11 759.66 -451.53 759.4 C-448.95 758.01 -446.92 756.36 -444.68 754.48 C-437.11 748.34 -429.05 743.32 -420.24 739.17 C-421.5 735.38 -422.92 734.77 -426.18 732.54 C-431.24 728.99 -435.76 725.11 -440.25 720.86 C-442.24 719.17 -442.24 719.17 -444.24 719.17 C-444.24 718.51 -444.24 717.85 -444.24 717.17 C-446.12 715.04 -446.12 715.04 -448.24 713.17 C-448.9 713.17 -449.56 713.17 -450.24 713.17 C-450.48 712.62 -450.73 712.06 -450.98 711.5 C-452.52 708.66 -454.42 706.39 -456.49 703.92 C-457.3 702.94 -458.11 701.96 -458.94 700.95 C-460.26 699.35 -461.59 697.76 -462.92 696.16 C-467.77 690.09 -470.93 683.15 -474.24 676.17 C-474.9 676.17 -475.56 676.17 -476.24 676.17 C-476.57 674.19 -476.9 672.21 -477.24 670.17 C-477.9 670.17 -478.56 670.17 -479.24 670.17 C-479.32 669.36 -479.41 668.56 -479.49 667.73 C-480.11 664.78 -480.77 662.88 -482.05 660.23 C-484.52 654.95 -485.88 649.45 -487.31 643.82 C-487.91 641.49 -488.56 639.18 -489.3 636.89 C-491.66 627.57 -491.43 617.89 -491.43 608.33 C-491.43 606.24 -491.45 604.15 -491.47 602.06 C-491.5 593.92 -490.94 586.15 -489.24 578.17 C-489.09 577.43 -488.93 576.68 -488.77 575.92 C-484.32 556 -476.64 538.71 -463.53 523.02 C-461.24 520.17 -461.24 520.17 -460.11 517.84 C-459.24 516.17 -459.24 516.17 -456.24 515.17 C-454.55 513.73 -454.55 513.73 -453.24 512.17 C-453.24 511.51 -453.24 510.85 -453.24 510.17 C-452.68 509.91 -452.12 509.65 -451.54 509.39 C-448.98 508.03 -446.79 506.44 -444.49 504.67 C-443.69 504.06 -442.89 503.45 -442.07 502.82 C-441.77 502.55 -441.77 502.55 -440.24 501.17 C-440.24 500.51 -440.24 499.85 -440.24 499.17 C-439.61 498.94 -438.97 498.71 -438.31 498.47 C-434.96 497.05 -431.81 495.37 -428.61 493.64 C-412.6 484.99 -396.01 478.84 -377.5 479.14 C-376.27 479.15 -375.04 479.17 -373.77 479.18 C-371.19 479.21 -368.61 479.25 -366.03 479.29 C-364.8 479.31 -363.58 479.32 -362.32 479.33 C-361.2 479.34 -360.08 479.36 -358.93 479.38 C-356.24 479.17 -356.24 479.17 -354.24 477.17 C-353.56 474.96 -353.56 474.96 -352.95 472.21 C-352.71 471.19 -352.48 470.17 -352.24 469.12 C-351.99 468.02 -351.75 466.92 -351.49 465.79 C-346.01 442.2 -338.94 418.99 -327.87 397.38 C-326.77 395.2 -325.69 393.01 -324.64 390.8 C-320.28 381.66 -315.28 372.94 -310.12 364.23 C-309.95 363.94 -309.95 363.94 -309.08 362.47 C-305.32 356.14 -301.5 349.91 -297.28 343.87 C-296.24 342.17 -296.24 342.17 -296.24 340.17 C-295.58 340.17 -294.92 340.17 -294.24 340.17 C-291.24 335.78 -291.24 335.78 -291.24 333.17 C-290.58 333.17 -289.92 333.17 -289.24 333.17 C-287.45 331.08 -285.77 328.99 -284.12 326.79 C-283.65 326.19 -283.18 325.59 -282.7 324.96 C-279.24 320.43 -279.24 320.43 -279.24 318.17 C-278.58 318.17 -277.92 318.17 -277.24 318.17 C-275.98 316.71 -274.78 315.2 -273.62 313.67 C-269.34 308.31 -264.72 303.44 -259.87 298.61 C-259.17 297.9 -258.46 297.2 -257.74 296.48 C-254.98 293.75 -252.48 291.33 -249.24 289.17 C-249.24 288.51 -249.24 287.85 -249.24 287.17 C-248.65 286.9 -248.05 286.63 -247.44 286.35 C-245.26 285.18 -243.84 283.99 -242.05 282.29 C-222.35 264.66 -197.48 250.39 -172.71 241.46 C-167.43 239.49 -164.96 238.17 -161.55 233.61 C-151.05 220.21 -134.74 205.67 -118.24 200.17 C-118.24 199.51 -118.24 198.85 -118.24 198.17 C-117.74 198.06 -117.24 197.95 -116.72 197.84 C-113.25 196.9 -109.92 195.62 -106.55 194.36 C-105.89 194.11 -105.22 193.86 -104.53 193.6 C-100.96 192.27 -97.5 190.83 -94.06 189.22 C-88.19 186.58 -82.05 184.9 -75.87 183.17 C-75.25 182.99 -75.25 182.99 -72.11 182.11 C-62.22 179.36 -52.35 176.92 -42.24 175.17 C-41.85 175.1 -41.85 175.1 -39.86 174.75 C18.05 164.96 93.81 164.55 144.62 199.11 C146.34 200.34 148.06 201.59 149.76 202.85 C151.76 204.17 151.76 204.17 153.76 204.17 C153.76 204.83 153.76 205.49 153.76 206.17 C155.16 207.51 155.16 207.51 157.13 209.11 C163.07 214.16 169.19 219.93 173.25 226.63 C177.94 234.38 185.11 235.76 193.3 238.34 C198.86 240.12 204.07 242.44 209.32 244.98 C210.12 245.37 210.93 245.75 211.75 246.15 C214.91 247.69 217.83 249.21 220.76 251.17 C221.75 251.17 222.74 251.17 223.76 251.17 C224.09 251.83 224.42 252.49 224.76 253.17 C226.21 254.15 227.69 255.08 229.2 255.98 C241.04 263.39 252.48 271.48 262.59 281.14 C267.97 286.17 267.97 286.17 270.76 286.17 C271.09 287.16 271.42 288.15 271.76 289.17 C272.42 289.17 273.08 289.17 273.76 289.17 C274.09 290.16 274.42 291.15 274.76 292.17 C275.42 292.17 276.08 292.17 276.76 292.17 C277.09 293.16 277.42 294.15 277.76 295.17 C278.42 295.17 279.08 295.17 279.76 295.17 C280.09 296.16 280.42 297.15 280.76 298.17 C281.42 298.17 282.08 298.17 282.76 298.17 C283.09 299.16 283.42 300.15 283.76 301.17 C284.42 301.17 285.08 301.17 285.76 301.17 C285.98 301.68 286.21 302.2 286.45 302.73 C288.24 306.06 290.26 309.32 292.76 312.17 C293.42 312.17 294.08 312.17 294.76 312.17 C294.88 312.44 294.88 312.44 295.5 313.82 C297.05 316.7 298.94 319.14 300.95 321.73 C304.74 326.71 308.13 331.8 311.35 337.18 C311.81 337.84 312.28 338.49 312.76 339.17 C313.42 339.17 314.08 339.17 314.76 339.17 C314.88 339.76 315.01 340.36 315.13 340.97 C316.12 344.45 318.28 347.24 320.26 350.23 C325.99 359.15 330.44 368.5 334.76 378.17 C335.05 378.8 335.33 379.44 335.63 380.1 C345.02 400.85 350.83 422.53 355.95 444.67 C356.07 445.22 356.07 445.22 356.72 448.01 C357.77 452.59 358.8 457.14 359.52 461.79 C360.93 470.4 360.93 470.4 363.47 472.75 C365.54 473.81 367.54 474.49 369.76 475.17 C382.41 481.56 387.75 489.83 392.13 502.91 C394.16 508.66 394.16 508.66 396.99 511.07 C400.44 512.44 403.93 513.51 407.51 514.48 C420.59 518.18 433.28 522.76 445.76 528.17 C446.99 528.69 448.22 529.2 449.45 529.72 C497.11 549.88 497.11 549.88 505.76 569.17 C509.62 579.72 510.06 590.41 506.76 601.17 C506.52 601.96 506.29 602.75 506.05 603.56 C499.27 623.26 479.5 632.36 462.09 641.04 C456.07 643.96 449.93 646.59 443.76 649.17 C442.69 649.63 441.62 650.09 440.52 650.57 C434.65 653.08 428.74 655.22 422.67 657.19 C418.29 658.66 414.02 660.39 409.76 662.17 C409.76 663.49 409.76 664.81 409.76 666.17 C410.42 666.17 411.08 666.17 411.76 666.17 C411.85 666.83 411.93 667.5 412.02 668.19 C412.98 672.07 414.68 675.32 416.51 678.86 C416.87 679.56 417.23 680.27 417.6 681 C419.16 684.08 420.74 687.14 422.36 690.19 C427.04 699.1 427.04 699.1 426.76 704.17 C425.49 706.29 424.02 708.11 422.45 710.02 C413.73 721.11 411.45 735.44 412.76 749.17 C414.16 755.73 416.2 761.97 418.76 768.17 C419.42 768.17 420.08 768.17 420.76 768.17 C420.87 768.74 420.98 769.32 421.1 769.91 C424.95 783.16 440.77 796.75 451.76 804.17 C452.42 804.17 453.08 804.17 453.76 804.17 C453.76 804.83 453.76 805.49 453.76 806.17 C455.4 807.62 457.1 809.01 458.82 810.36 C462.98 813.67 466.8 817.05 470.42 820.95 C471.76 822.17 471.76 822.17 473.76 822.17 C473.76 822.83 473.76 823.49 473.76 824.17 C474.1 824.43 474.1 824.43 475.82 825.73 C479.25 828.58 481.6 831.75 484.21 835.34 C484.72 835.94 485.23 836.55 485.76 837.17 C486.42 837.17 487.08 837.17 487.76 837.17 C487.98 837.68 488.21 838.2 488.44 838.73 C490.26 842.1 492.58 845.06 494.88 848.11 C502.86 858.86 509.43 869.84 514.76 882.17 C515.2 883.13 515.64 884.1 516.1 885.09 C520.8 895.66 523.48 906.69 524.76 918.17 C523.44 917.51 522.12 916.85 520.76 916.17 C520.76 915.51 520.76 914.85 520.76 914.17 C519.44 913.84 518.12 913.51 516.76 913.17 C516.76 912.51 516.76 911.85 516.76 911.17 C514.86 909.66 514.86 909.66 512.38 908.04 C511.57 907.5 510.76 906.97 509.92 906.41 C507.76 905.17 507.76 905.17 505.76 905.17 C505.85 905.44 505.85 905.44 506.31 906.8 C508.21 912.46 510.03 918.15 511.82 923.86 C512.33 925.48 512.84 927.11 513.36 928.74 C513.6 929.51 513.84 930.28 514.08 931.07 C514.64 932.81 515.24 934.54 515.84 936.27 C524.32 963.2 521.93 994.73 516.21 1021.93 C515.63 1024.78 515.22 1027.66 514.82 1030.54 C513.88 1036.38 511.99 1041.82 510.04 1047.38 C508.81 1050.94 507.8 1054.53 506.82 1058.17 C503.44 1070.19 498.42 1081.25 492.7 1092.33 C491.7 1094.28 490.74 1096.24 489.78 1098.21 C489.44 1098.9 489.11 1099.59 488.76 1100.3 C488.12 1101.61 487.49 1102.92 486.86 1104.22 C483.9 1110.25 480.44 1115.38 476.76 1121.17 C475.77 1111.93 474.78 1102.69 473.76 1093.17 C472.77 1093.5 471.78 1093.83 470.76 1094.17 C469.87 1095.96 469.87 1095.96 469.07 1098.36 C467.4 1102.84 465.3 1106.92 462.88 1111.04 C459.68 1116.5 456.75 1122.04 453.98 1127.74 C452.76 1130.17 452.76 1130.17 450.76 1133.17 C450.18 1135.05 449.66 1136.95 449.2 1138.86 C449.07 1139.35 449.07 1139.35 448.44 1141.87 C447 1148.81 446.58 1155.54 446.57 1162.61 C446.56 1163 446.56 1163 446.53 1165.01 C446.51 1174.25 448.57 1181.61 452.88 1189.73 C453.26 1190.45 453.63 1191.18 454.01 1191.92 C454.92 1193.67 455.84 1195.42 456.76 1197.17 C457.42 1197.17 458.08 1197.17 458.76 1197.17 C458.86 1197.44 458.86 1197.44 459.38 1198.83 C461.29 1202.07 464 1204.19 466.88 1206.54 C467.47 1207.03 468.05 1207.52 468.66 1208.02 C472.92 1211.54 477.27 1214.94 481.76 1218.17 C482.41 1218.65 483.06 1219.14 483.73 1219.64 C488.51 1223.17 488.51 1223.17 490.76 1223.17 C490.76 1223.83 490.76 1224.49 490.76 1225.17 C492.15 1226.4 492.15 1226.4 494.08 1227.78 C494.78 1228.29 495.48 1228.79 496.2 1229.32 C497.68 1230.37 499.15 1231.42 500.63 1232.47 C505.04 1235.68 508.46 1238.82 511.76 1243.17 C510.77 1243.3 509.78 1243.43 508.75 1243.57 C504.74 1244.14 500.79 1244.92 496.82 1245.73 C496.14 1245.87 495.45 1246.01 494.75 1246.15 C493.08 1246.49 491.42 1246.83 489.76 1247.17 C489.76 1250.17 489.76 1250.17 491.3 1251.78 C491.99 1252.34 492.67 1252.9 493.38 1253.48 C496.11 1255.75 498.68 1258.04 501.13 1260.61 C503.76 1263.17 503.76 1263.17 505.76 1263.17 C506.01 1263.75 506.26 1264.33 506.51 1264.93 C507.94 1267.49 509.55 1269.05 511.7 1271.04 C517.23 1276.45 521.85 1282.43 526.53 1288.57 C528.12 1290.64 529.76 1292.68 531.38 1294.73 C544.11 1311.18 554.68 1329 562.76 1348.17 C563.42 1348.17 564.08 1348.17 564.76 1348.17 C564.82 1348.6 564.82 1348.6 565.12 1350.82 C565.74 1354.09 566.68 1356.74 568.01 1359.79 C568.92 1361.92 569.84 1364.04 570.76 1366.17 C571.14 1367.04 571.52 1367.9 571.92 1368.8 C575.03 1376.01 577.36 1383.2 579.32 1390.79 C579.47 1391.35 579.47 1391.35 580.22 1394.19 C582.64 1403.46 584.81 1412.78 586.76 1422.17 C590.76 1422.17 590.76 1422.17 592.11 1420.86 C592.51 1420.25 592.9 1419.64 593.31 1419.02 C593.76 1418.35 594.2 1417.68 594.67 1416.99 C595.13 1416.26 595.59 1415.54 596.07 1414.79 C597.05 1413.31 598.03 1411.83 599.01 1410.36 C599.48 1409.63 599.96 1408.91 600.44 1408.17 C602.08 1405.67 603.79 1403.23 605.51 1400.79 C606.05 1400.03 606.59 1399.26 607.14 1398.47 C607.67 1397.71 608.21 1396.95 608.76 1396.17 C610.54 1393.61 612.33 1391.06 614.11 1388.5 C615.16 1387.01 616.22 1385.54 617.31 1384.09 C620.76 1379.46 620.76 1379.46 620.76 1376.17 C621.42 1376.17 622.08 1376.17 622.76 1376.17 C623.91 1374.54 623.91 1374.54 625.26 1372.17 C627.94 1367.54 630.72 1363 633.57 1358.48 C638.41 1350.77 643.14 1343.01 647.76 1335.17 C648.11 1334.58 648.45 1333.99 648.81 1333.38 C653.3 1325.74 657.44 1317.99 661.31 1310.03 C662.76 1307.17 662.76 1307.17 664.76 1304.17 C664.76 1303.18 664.76 1302.19 664.76 1301.17 C665.42 1301.17 666.08 1301.17 666.76 1301.17 C667.09 1299.19 667.42 1297.21 667.76 1295.17 C668.42 1295.17 669.08 1295.17 669.76 1295.17 C676.88 1280.39 683.61 1265.44 690.28 1250.46 C691.66 1247.38 693.07 1244.31 694.48 1241.24 C696.32 1237.2 697.98 1233.15 699.51 1228.98 C700.02 1227.58 700.53 1226.19 701.05 1224.79 C701.32 1224.05 701.59 1223.3 701.88 1222.54 C702.8 1220.05 703.76 1217.58 704.72 1215.11 C719.46 1176.98 731.57 1137.23 739.76 1097.17 C739.86 1096.69 739.86 1096.69 740.36 1094.27 C741.44 1089.02 742.49 1083.76 743.51 1078.5 C744.29 1074.49 745.11 1070.49 745.97 1066.49 C750.73 1043.96 753.24 1021.04 755.76 998.17 C755.85 997.32 755.95 996.47 756.05 995.59 C758.77 971.04 759.04 946.49 759.07 921.82 C759.07 920.19 759.07 918.57 759.08 916.94 C759.12 897.3 758.69 877.86 757.02 858.27 C756.65 853.87 756.34 849.46 756.04 845.05 C754.56 824.23 751.85 803.67 748.26 783.11 C747.77 780.24 747.31 777.37 746.86 774.49 C742.48 746.66 736.07 719.35 728.76 692.17 C728.64 691.71 728.64 691.71 728.02 689.38 C722.21 667.67 715.03 646.32 707.63 625.11 C707.42 624.48 707.2 623.85 706.97 623.2 C702.54 610.62 696.89 598.45 691.57 586.23 C691.2 585.37 690.82 584.51 690.43 583.62 C685.37 572 680.21 560.46 674.64 549.07 C672.89 545.49 671.3 541.85 669.76 538.17 C669.1 538.17 668.44 538.17 667.76 538.17 C667.43 536.19 667.1 534.21 666.76 532.17 C666.1 532.17 665.44 532.17 664.76 532.17 C664.43 530.19 664.1 528.21 663.76 526.17 C663.1 526.17 662.44 526.17 661.76 526.17 C661.66 525.46 661.56 524.75 661.46 524.02 C660.65 520.71 659.29 518.38 657.51 515.48 C655.2 511.64 653.03 507.82 651.07 503.79 C649.23 500.02 647.1 496.65 644.76 493.17 C643.81 491.45 642.87 489.72 641.95 487.98 C639.34 483.13 636.49 478.51 633.5 473.89 C631.22 470.32 629.11 466.65 627.02 462.97 C626.6 462.37 626.19 461.78 625.76 461.17 C625.1 461.17 624.44 461.17 623.76 461.17 C623.64 460.59 623.53 460.01 623.41 459.42 C622.7 456.96 621.7 455.26 620.29 453.13 C620.04 452.76 620.04 452.76 618.81 450.87 C618.3 450.1 617.79 449.33 617.26 448.54 C616.25 447.01 615.24 445.48 614.23 443.94 C613.78 443.27 613.33 442.59 612.87 441.89 C611.76 440.17 611.76 440.17 610.76 438.17 C610.1 438.17 609.44 438.17 608.76 438.17 C608.56 437.52 608.36 436.88 608.15 436.21 C606.16 431.86 603.35 428.25 600.51 424.42 C599.38 422.88 598.25 421.35 597.12 419.81 C596.56 419.05 596 418.3 595.43 417.52 C593.18 414.36 591.09 411.1 589.03 407.81 C588.61 407.27 588.19 406.73 587.76 406.17 C587.1 406.17 586.44 406.17 585.76 406.17 C585.49 405.59 585.22 405.01 584.94 404.41 C583.74 402.14 582.42 400.3 580.82 398.29 C580.21 397.52 579.59 396.74 578.96 395.94 C578.6 395.48 578.6 395.48 576.76 393.17 C575.84 391.99 574.91 390.82 573.99 389.64 C568.89 383.13 568.89 383.13 567 380.75 C565.83 379.26 564.69 377.75 563.55 376.25 C562.96 375.56 562.37 374.87 561.76 374.17 C561.1 374.17 560.44 374.17 559.76 374.17 C559.48 373.58 559.21 372.99 558.93 372.38 C557.79 370.24 556.6 368.64 555.01 366.82 C554.48 366.22 553.96 365.61 553.41 364.99 C552.87 364.37 552.32 363.74 551.76 363.11 C550.67 361.87 549.59 360.63 548.51 359.38 C548.03 358.84 547.55 358.29 547.05 357.73 C545.76 356.17 545.76 356.17 543.76 353.17 C543.1 353.17 542.44 353.17 541.76 353.17 C541.53 352.63 541.3 352.1 541.07 351.54 C538.2 346.34 533.94 342.32 529.76 338.17 C528.63 337.04 527.51 335.92 526.38 334.79 C525.79 334.2 525.2 333.61 524.59 333 C519.13 327.54 519.13 327.54 517.38 325.79 C515.99 324.4 514.6 323.01 513.21 321.62 C511.37 319.78 509.54 317.92 507.71 316.05 C506.67 314.99 505.62 313.92 504.57 312.86 C504.04 312.31 503.5 311.76 502.96 311.19 C501.59 309.81 500.18 308.48 498.76 307.17 C498.1 307.17 497.44 307.17 496.76 307.17 C496.43 306.18 496.1 305.19 495.76 304.17 C495.1 304.17 494.44 304.17 493.76 304.17 C493.76 303.51 493.76 302.85 493.76 302.17 C492.36 300.76 492.36 300.76 490.38 299.11 C486.1 295.48 481.97 291.71 477.86 287.89 C475.76 286.17 475.76 286.17 473.76 286.17 C473.76 285.51 473.76 284.85 473.76 284.17 C471.89 282.61 470.03 281.16 468.07 279.73 C463.45 276.27 458.99 272.71 454.63 268.92 C446.4 261.82 437.57 255.53 428.76 249.17 C428.09 248.68 427.42 248.2 426.73 247.7 C418.87 242 410.88 236.51 402.76 231.17 C401.7 230.43 400.63 229.7 399.54 228.94 C396.76 227.17 396.76 227.17 394.76 227.17 C394.76 226.51 394.76 225.85 394.76 225.17 C392.97 223.84 392.97 223.84 390.49 222.35 C389.6 221.81 388.71 221.28 387.79 220.73 C387.32 220.45 387.32 220.45 384.95 219.04 C384.02 218.48 383.09 217.92 382.13 217.34 C375.14 213.17 375.14 213.17 371.76 213.17 C371.76 212.51 371.76 211.85 371.76 211.17 C370.11 210.84 368.46 210.51 366.76 210.17 C366.76 209.51 366.76 208.85 366.76 208.17 C366.18 207.89 365.59 207.61 364.99 207.32 C360.26 205 355.66 202.56 351.13 199.86 C339.57 193.04 327.43 187.49 315.15 182.11 C311.04 180.31 306.99 178.41 302.95 176.48 C297.44 173.87 291.87 171.58 286.15 169.5 C283.29 168.38 280.56 167.14 277.79 165.83 C271.04 162.74 264.06 160.46 257.01 158.17 C255.74 157.75 254.47 157.34 253.2 156.92 C250.66 156.08 248.11 155.25 245.56 154.42 C243.08 153.6 240.6 152.77 238.12 151.93 C228.15 148.54 218.09 145.58 207.95 142.73 C207.09 142.49 206.24 142.25 205.35 142 C167.32 131.34 128.81 124.43 89.57 120.11 C89.2 120.06 89.2 120.06 87.33 119.86 C81.81 119.25 76.29 118.69 70.76 118.17 C69.81 118.08 68.86 117.99 67.88 117.89 C50.14 116.25 32.51 115.81 14.7 115.86 C13.33 115.86 11.97 115.86 10.61 115.86 C-42.92 115.96 -95.89 121.92 -147.73 135.53 Z M-24.24 193.17 C-25.97 193.4 -27.7 193.63 -29.43 193.86 C-67.82 199.22 -108.81 211.66 -137.24 239.17 C-137.91 239.8 -138.59 240.43 -139.28 241.09 C-142.63 244.32 -145.35 247.3 -147.74 251.29 C-150.98 255.74 -155.25 256.99 -160.25 258.68 C-187.54 268.01 -212.56 283.97 -233.52 303.63 C-235.85 305.8 -238.21 307.9 -240.62 309.98 C-243.99 312.91 -247.2 315.9 -250.24 319.17 C-250.24 319.83 -250.24 320.49 -250.24 321.17 C-251.23 321.5 -252.22 321.83 -253.24 322.17 C-255.19 324.29 -255.19 324.29 -257.37 327.04 C-262.22 333.14 -262.22 333.14 -264.34 335.64 C-281.07 355.37 -294.24 377.86 -305.29 401.18 C-305.94 402.53 -306.59 403.87 -307.25 405.21 C-313.05 416.9 -317.39 428.99 -321.49 441.36 C-321.74 442.11 -321.99 442.86 -322.25 443.64 C-324.96 451.84 -327.56 460.07 -330.04 468.34 C-330.14 468.69 -330.14 468.69 -330.67 470.41 C-331.93 474.67 -332.71 478.78 -333.24 483.17 C-332.74 483.38 -332.24 483.58 -331.73 483.8 C-325.69 486.39 -320.1 489.5 -314.45 492.88 C-308.67 495.2 -304.37 493.31 -298.88 491.02 C-296.75 490.09 -294.62 489.16 -292.49 488.23 C-266.65 477.35 -237.96 469.36 -210.24 465.17 C-205.61 479.85 -201.24 494.57 -197.19 509.42 C-194.02 521.05 -190.66 532.61 -187.24 544.17 C-180.94 543.41 -174.85 541.99 -168.68 540.54 C-166.34 539.99 -164 539.45 -161.67 538.9 C-161.06 538.76 -161.06 538.76 -157.98 538.04 C-148.02 535.72 -138.06 533.44 -128.09 531.16 C-125.53 530.57 -122.96 529.98 -120.39 529.39 C-116.63 528.53 -112.86 527.66 -109.09 526.8 C-107.94 526.54 -106.79 526.27 -105.61 526 C-105.08 525.88 -105.08 525.88 -102.4 525.27 C-101.48 525.05 -100.55 524.84 -99.59 524.62 C-97.24 524.17 -97.24 524.17 -94.24 524.17 C-95.27 524.47 -96.29 524.78 -97.35 525.09 C-123.66 532.98 -149.57 541.46 -175.01 551.87 C-178.44 553.25 -181.9 554.52 -185.37 555.79 C-193.34 558.74 -201.2 561.98 -209.05 565.23 C-209.67 565.49 -210.29 565.74 -210.93 566 C-220.84 570.09 -230.7 574.27 -240.24 579.17 C-239.62 582.83 -238.6 586.05 -237.18 589.48 C-237 589.92 -237 589.92 -236.08 592.16 C-235.8 592.82 -235.53 593.48 -235.24 594.17 C-227.49 593.68 -220.4 591.59 -212.99 589.39 C-132.99 565.87 -45.94 555.59 47.29 546.4 C49.71 546.17 52.13 545.94 54.56 545.71 C64.95 544.73 75.35 543.89 85.76 543.17 C86.5 543.12 87.25 543.06 88.01 543.01 C175.75 536.93 266.38 541.79 471.76 587.29 C472.4 587.61 473.04 587.92 473.7 588.24 C477.77 590.35 480.55 592.95 483.76 596.17 C484.75 596.17 485.74 596.17 486.76 596.17 C488.64 588.56 489.9 582.29 486.13 575.04 C481.24 569.12 475.32 565.02 468.7 561.23 C467.95 560.8 467.2 560.37 466.43 559.92 C411.91 528.77 346.73 513.53 285.76 501.17 C303.35 502.21 303.35 502.21 310.63 503.04 C311.37 503.12 312.1 503.21 312.86 503.29 C319.11 504.02 325.3 505.03 331.48 506.2 C336.64 507.14 341.51 507.28 346.76 507.17 C346.76 501.56 346.76 495.95 346.76 490.17 C348.74 490.98 350.73 491.8 352.71 492.61 C354.76 493.17 354.76 493.17 357.76 492.17 C355.8 491.33 353.84 490.5 351.88 489.67 C351.34 489.44 351.34 489.44 348.58 488.26 C345.76 487.17 345.76 487.17 343.76 487.17 C343.63 486.42 343.5 485.67 343.36 484.9 C342.07 477.49 340.75 470.09 339.4 462.69 C339.02 460.61 338.64 458.53 338.27 456.44 C334.06 432.98 326.42 409 316.51 387.36 C316.31 386.93 316.31 386.93 315.34 384.79 C302.92 357.88 286.44 333.45 265.76 312.17 C265.18 311.56 264.6 310.96 264 310.33 C255.48 301.45 246.72 293.4 236.76 286.17 C236.14 285.71 235.52 285.26 234.88 284.79 C199.57 259.17 199.57 259.17 188.76 259.17 C190.44 262.77 192.59 265.67 195.03 268.78 C202.15 278.61 207.54 289.62 213.23 300.31 C214.14 302 215.04 303.7 215.96 305.39 C233.11 337.15 243.58 373.15 251.76 408.17 C252.03 409.34 252.3 410.5 252.58 411.71 C256.39 428.4 258.86 445.2 261.07 462.17 C261.13 462.66 261.13 462.66 261.46 465.17 C262.88 476.16 264.1 487.1 264.76 498.17 C258.49 497.51 252.22 496.85 245.76 496.17 C245.67 494.75 245.59 493.32 245.5 491.86 C241.33 429.54 225.97 364.48 198.76 308.17 C198.44 307.5 198.12 306.84 197.79 306.15 C195.88 302.22 193.91 298.31 191.91 294.42 C190.6 291.86 189.31 289.3 188.01 286.73 C179.07 269.17 169.29 252.42 156.76 237.17 C156.28 236.58 155.81 235.99 155.32 235.39 C130.89 205.29 94.09 195.31 56.76 191.17 C56.33 191.12 56.33 191.12 54.15 190.88 C44.54 189.94 34.91 189.93 25.26 189.92 C24.36 189.92 23.45 189.92 22.52 189.91 C6.75 189.92 -8.61 190.93 -24.24 193.17 Z M-240.46 488.19 C-241.16 488.42 -241.85 488.65 -242.57 488.88 C-250.73 491.58 -258.74 494.68 -266.74 497.79 C-268.24 498.37 -269.74 498.95 -271.23 499.53 C-273.34 500.34 -275.45 501.16 -277.56 501.97 C-282.11 503.74 -286.67 505.46 -291.24 507.17 C-288.11 510.93 -284.94 514.51 -281.43 517.92 C-268.38 530.85 -258.81 546.61 -249.24 562.17 C-240.21 559.9 -231.43 556.96 -222.62 553.97 C-220.24 553.17 -217.85 552.37 -215.47 551.57 C-214.67 551.31 -213.87 551.04 -213.06 550.77 C-212.76 550.67 -212.76 550.67 -211.24 550.17 C-212.86 544.09 -214.48 538.01 -216.09 531.93 C-216.64 529.87 -217.19 527.81 -217.74 525.75 C-221.16 512.87 -224.64 500 -228.24 487.17 C-232.77 485.78 -236.12 486.72 -240.46 488.19 Z M359.76 494.17 C360.18 494.64 360.6 495.11 361.04 495.59 C361.58 496.22 362.13 496.84 362.7 497.48 C362.97 497.79 362.97 497.79 364.35 499.34 C365.76 501.17 365.76 501.17 366.76 504.17 C365.77 504.17 364.78 504.17 363.76 504.17 C363.43 504.83 363.1 505.49 362.76 506.17 C360.2 506.79 360.2 506.79 357.76 507.17 C360.57 509.98 362.97 509.8 366.88 510.29 C368.16 510.46 369.45 510.63 370.77 510.8 C371.75 510.92 372.74 511.04 373.76 511.17 C371.67 505.16 369.93 500.2 364.76 496.17 C361.95 494.86 361.95 494.86 359.76 494.17 Z M-415.24 513.17 C-415.81 513.5 -416.38 513.84 -416.96 514.18 C-424.57 518.69 -431.36 523.47 -437.24 530.17 C-436.91 530.83 -436.58 531.49 -436.24 532.17 C-434.59 531.84 -432.94 531.51 -431.24 531.17 C-431.41 531.99 -431.41 531.99 -432.24 536.17 C-428.56 535.1 -425.38 533.71 -422.05 531.86 C-404.7 523.1 -384.78 521.38 -366.24 527.17 C-349.27 533.3 -330.87 543.63 -320.44 558.79 C-317.66 561.8 -316 561.97 -311.99 562.54 C-291.01 566.48 -274.96 579.31 -260.24 594.17 C-260.71 587.94 -263.57 582.97 -266.43 577.54 C-266.7 577.04 -266.7 577.04 -268.04 574.48 C-276.19 559.34 -285.99 545.26 -298.24 533.17 C-298.71 532.7 -299.17 532.23 -299.65 531.75 C-318.2 513.3 -342.03 501.94 -368.37 501.61 C-384.7 501.7 -401.18 504.49 -415.24 513.17 Z M-442.24 536.17 C-451.51 547.35 -451.51 547.35 -454.24 553.17 C-453.91 554.16 -453.58 555.15 -453.24 556.17 C-442.24 542.82 -442.24 542.82 -442.24 536.17 Z M8.95 752.23 C6.43 756.34 6.28 760.48 6.76 765.17 C8.76 770.84 12.37 774.47 17.76 777.17 C22.25 777.78 24.99 777.44 28.57 774.73 C31.75 771.68 33.07 768.88 33.74 764.54 C33.78 759.1 31.76 754.74 28.88 750.23 C25.9 747.33 23.38 746.42 19.32 745.79 C14.89 746.44 11.85 748.92 8.95 752.23 Z M308.76 751.17 C305.96 754.48 304.85 757.43 304.32 761.73 C304.96 766.79 306.47 769.88 310.07 773.48 C313.2 775.44 315.06 776.17 318.76 776.17 C322.73 774.3 324.44 772.7 326.7 768.92 C328.14 763.83 328.17 759.84 325.71 755.18 C323.55 751.96 321.6 749.32 317.76 748.17 C313.87 748.17 312.04 749.09 308.76 751.17 Z M345.76 755.17 C346.09 756.16 346.42 757.15 346.76 758.17 C346.76 757.18 346.76 756.19 346.76 755.17 C346.43 755.17 346.1 755.17 345.76 755.17 Z M-52.24 764.17 C-53.06 764.86 -53.87 765.55 -54.71 766.27 C-56.93 768.19 -59.09 770.16 -61.24 772.17 C-61.88 772.72 -62.51 773.27 -63.17 773.84 C-65.78 776.36 -67.11 778.08 -67.56 781.73 C-67.25 788.55 -65.09 793.63 -61.24 799.17 C-60.69 799.98 -60.13 800.79 -59.55 801.63 C-50.56 813.79 -38.92 819.77 -25.24 825.17 C-25.85 824.98 -26.46 824.8 -27.08 824.61 C-29.8 823.79 -32.52 822.98 -35.24 822.17 C-36.04 821.93 -36.84 821.69 -37.66 821.44 C-80.28 808.79 -127.65 805.04 -168.26 826.22 C-189.4 837.86 -207.91 854.01 -221.24 874.17 C-220.58 874.83 -219.92 875.49 -219.24 876.17 C-217.61 875.97 -215.98 875.76 -214.36 875.47 C-197.86 873.08 -180.84 875.52 -165.32 881.14 C-162.24 882.17 -162.24 882.17 -159.24 882.17 C-162.48 885.5 -165.8 888.52 -169.43 891.42 C-207.83 922.59 -232.47 969.58 -237.78 1018.78 C-239.36 1036.46 -239.54 1056.32 -233.24 1073.17 C-232.58 1073.17 -231.92 1073.17 -231.24 1073.17 C-231.03 1071.91 -230.83 1070.65 -230.61 1069.36 C-228.58 1057.79 -225.7 1047.58 -220.24 1037.17 C-220.08 1036.85 -220.08 1036.85 -219.24 1035.24 C-213.92 1025.22 -207.23 1017.18 -199.24 1009.17 C-199.35 1009.62 -199.35 1009.62 -199.88 1011.92 C-201.89 1021.11 -202.79 1029.84 -202.74 1039.29 C-202.74 1039.96 -202.74 1040.63 -202.74 1041.32 C-202.44 1086.98 -174.91 1127.46 -144.24 1159.17 C-143.38 1160.06 -142.52 1160.95 -141.63 1161.87 C-137.03 1166.54 -132.28 1170.97 -127.24 1175.17 C-126.98 1175.38 -126.98 1175.38 -125.67 1176.48 C-105.27 1193.39 -82.45 1206.5 -59.24 1219.17 C-58.91 1218.51 -58.58 1217.85 -58.24 1217.17 C-58.74 1216.57 -59.23 1215.98 -59.75 1215.37 C-64.76 1209.25 -69.13 1202.92 -73.24 1196.17 C-72.94 1196.42 -72.94 1196.42 -71.41 1197.67 C-65.52 1202.45 -59.53 1206.94 -53.24 1211.17 C-52.95 1211.37 -52.95 1211.37 -51.47 1212.37 C-24.44 1230.53 4.61 1243.61 35.43 1254.03 C37.64 1254.79 39.85 1255.56 42.05 1256.36 C52.9 1260.2 63.99 1262.67 75.22 1265.14 C78.52 1265.86 81.81 1266.59 85.11 1267.33 C87.23 1267.8 89.36 1268.27 91.49 1268.74 C92.46 1268.96 93.43 1269.17 94.43 1269.39 C99.14 1270.42 103.85 1271.41 108.59 1272.32 C109.44 1272.48 110.29 1272.65 111.16 1272.82 C114.05 1273.21 116.84 1273.23 119.76 1273.17 C119.92 1264.3 119.42 1255.61 118.62 1246.78 C118.5 1245.41 118.38 1244.03 118.26 1242.66 C117.94 1239.01 117.61 1235.37 117.27 1231.73 C117.07 1229.47 116.87 1227.22 116.66 1224.96 C114.51 1200.97 111.97 1177.05 108.76 1153.17 C104.24 1151.6 99.72 1150.12 95.09 1148.91 C69.16 1142.14 45.07 1130.41 23.76 1114.17 C23.32 1113.83 23.32 1113.83 21.09 1112.15 C14.31 1106.86 8.01 1101.06 1.76 1095.17 C0.97 1094.44 0.19 1093.71 -0.62 1092.96 C-14.87 1079.26 -26.11 1062.03 -36.24 1045.17 C-37.9 1042.5 -39.57 1039.83 -41.24 1037.17 C-52.03 1040.87 -59.36 1051.52 -66.24 1060.17 C-69.35 1050.83 -66 1038.95 -61.89 1030.32 C-55.18 1017.51 -46.48 1010.64 -32.85 1005.89 C-27.42 1004.38 -22.3 1004.03 -16.68 1004.04 C-15.4 1004.04 -14.12 1004.04 -12.8 1004.04 C-9.8 1004.15 -7.15 1004.46 -4.24 1005.17 C-4.24 1005.83 -4.24 1006.49 -4.24 1007.17 C-5.79 1008.56 -7.41 1009.88 -9.05 1011.17 C-15.02 1015.93 -20.64 1020.98 -26.24 1026.17 C-20.96 1043.61 -7.59 1060.13 4.76 1073.17 C6.6 1075.26 8.43 1077.37 10.25 1079.48 C13.16 1082.74 13.16 1082.74 14.76 1084.17 C15.42 1084.17 16.08 1084.17 16.76 1084.17 C16.76 1084.83 16.76 1085.49 16.76 1086.17 C20.23 1089.4 24.03 1092.25 27.76 1095.17 C28.67 1095.9 29.59 1096.62 30.53 1097.38 C66.19 1125.06 109.41 1138.44 154.45 1133.51 C182.3 1129.93 209.84 1120.35 233.3 1104.75 C235.82 1103.13 238.42 1101.75 241.07 1100.36 C248.31 1095.14 249.71 1086.37 251.76 1078.17 C251.88 1077.68 251.88 1077.68 252.52 1075.2 C257.94 1053.87 262.15 1032.21 262.76 1010.17 C255.99 1005.86 249.08 1001.85 242.13 997.86 C241.05 997.23 239.96 996.6 238.84 995.96 C234.32 993.36 229.8 990.76 225.27 988.19 C169.41 956.43 169.41 956.43 149.76 938.17 C149.38 937.83 149.38 937.83 147.45 936.11 C138.09 927.34 130.72 915.15 129.76 902.17 C129.65 900.97 129.55 899.78 129.45 898.54 C129.64 887.21 135.24 875.88 142.76 867.61 C174.69 838.09 227.49 833.32 268.76 834.17 C269.47 834.18 270.18 834.19 270.91 834.21 C307.65 835.03 354.56 843.91 381.07 871.48 C384.93 876 387.08 880.49 388.76 886.17 C388.99 886.96 389.23 887.75 389.47 888.57 C392.93 902.53 388.89 915.64 381.63 927.67 C372.11 941.84 359.85 954.38 346.51 964.97 C343.68 967.23 340.94 969.57 338.2 971.92 C321.98 985.43 304.12 996.78 286.1 1007.71 C283.76 1009.17 283.76 1009.17 282.76 1010.17 C282.68 1011.75 282.61 1013.34 282.57 1014.93 C281.84 1040.04 275.79 1067.7 266.5 1091.05 C265.13 1094.55 264.42 1096.62 265.76 1100.17 C267.9 1102.25 269.98 1104.08 272.32 1105.92 C272.99 1106.45 273.66 1106.98 274.35 1107.52 C291.12 1120.35 313.47 1129.02 334.76 1127.17 C342.48 1126 349.63 1124.43 356.76 1121.17 C355.17 1125.3 352.16 1127.85 348.95 1130.73 C348.42 1131.21 347.9 1131.69 347.37 1132.19 C345.07 1134.27 342.96 1136.07 340.2 1137.49 C337.13 1139.6 336.71 1141.04 335.7 1144.59 C335.38 1145.67 335.06 1146.75 334.73 1147.87 C334.41 1149.02 334.09 1150.17 333.76 1151.36 C333.07 1153.71 332.38 1156.07 331.7 1158.43 C331.53 1159.01 331.53 1159.01 330.7 1161.92 C329.47 1166.18 328.12 1170.39 326.76 1174.61 C324.76 1180.81 324.76 1180.81 324.76 1184.17 C330.64 1181.98 335.54 1178.62 340.76 1175.17 C341.36 1174.77 341.96 1174.38 342.59 1173.98 C363.21 1160.47 381.84 1143.74 396.5 1123.86 C397.72 1122.22 398.96 1120.61 400.2 1118.99 C427.11 1083.36 444.19 1038.39 444.13 993.61 C444.13 992.91 444.13 992.22 444.13 991.51 C444.09 979.06 442.81 967.25 439.76 955.17 C439.53 954.27 439.31 953.37 439.08 952.45 C432.97 928.66 423.46 904.34 407.76 885.17 C407.11 884.34 406.47 883.51 405.81 882.65 C381.56 851.59 351.04 832.48 315.26 817.23 C297.48 809.59 279.03 801.07 269.26 783.46 C259.47 768.47 227.1 761.69 210.83 757.96 C191.07 753.87 168.06 754.23 148.76 760.17 C147.99 760.4 147.22 760.63 146.43 760.87 C128.8 766.34 113.07 775.6 98.76 787.17 C100.4 791.03 102.98 793.97 105.7 797.11 C108.73 800.62 111.49 804.1 113.76 808.17 C113.33 808.23 113.33 808.23 111.18 808.54 C84.83 813.03 61.28 827.14 42.76 846.17 C42.15 845.99 41.55 845.81 40.93 845.62 C36.54 844.3 32.15 842.99 27.76 841.69 C23.1 840.3 18.45 838.88 13.81 837.45 C11.82 836.85 9.83 836.25 7.84 835.66 C-7.54 831.12 -19.25 826.66 -27.74 812.14 C-35.9 795.97 -37.42 780.13 -32.46 762.79 C-30.91 758.16 -28.85 754.25 -26.24 750.17 C-25.56 748.84 -24.89 747.51 -24.24 746.17 C-33.29 746.17 -45.97 758.66 -52.24 764.17 Z M336.76 763.17 C336.77 763.47 336.77 763.47 336.81 765 C337.25 784.67 335.76 800.17 321.76 815.17 C322.42 815.5 323.08 815.83 323.76 816.17 C328.65 813.11 333.33 809.87 337.76 806.17 C338.13 805.86 338.13 805.86 340.01 804.29 C344.9 798.35 343.27 786.62 342.76 779.17 C341.79 772.97 340.63 768.13 336.76 763.17 Z M46.76 788.17 C46.54 789.04 46.32 789.91 46.09 790.81 C43.07 802.16 39.19 812.66 30.76 821.17 C30.27 821.67 29.78 822.18 29.27 822.7 C28.11 823.87 26.94 825.02 25.76 826.17 C26.42 826.5 27.08 826.83 27.76 827.17 C30.12 825.84 32.33 824.48 34.57 822.98 C35.19 822.58 35.8 822.18 36.44 821.77 C46.14 815.41 46.14 815.41 47.76 812.17 C48.91 805.02 49.43 797.37 48.76 790.17 C48.1 789.51 47.44 788.85 46.76 788.17 Z M-452.24 794.17 C-452.57 794.83 -452.9 795.49 -453.24 796.17 C-452.58 796.17 -451.92 796.17 -451.24 796.17 C-451.57 795.51 -451.9 794.85 -452.24 794.17 Z M187.76 864.17 C188.42 864.83 189.08 865.49 189.76 866.17 C192.92 865.93 192.92 865.93 196.82 865.29 C206.84 863.69 215.69 864.24 225.7 865.92 C226.8 866.1 227.9 866.28 229.04 866.47 C240.32 868.37 251.44 870.61 262.44 873.79 C263.41 874.07 264.39 874.35 265.4 874.64 C267.29 875.18 269.18 875.75 271.06 876.33 C279.37 878.75 285.82 877.75 294.13 875.73 C312.81 871.6 331.87 871.09 350.76 874.17 C350.76 873.51 350.76 872.85 350.76 872.17 C324.3 857.54 294.64 851.71 264.63 851.86 C263.82 851.86 263.01 851.86 262.18 851.86 C237.99 851.98 210.24 854.52 187.76 864.17 Z M256.76 1119.17 C256.59 1119.98 256.42 1120.78 256.25 1121.62 C245.85 1170.83 232.85 1219.51 216.76 1267.17 C217.38 1262.7 218.06 1258.25 218.83 1253.81 C218.94 1253.19 218.94 1253.19 219.47 1250.08 C219.53 1249.76 219.53 1249.76 219.81 1248.11 C220.43 1244.52 221.04 1240.93 221.66 1237.35 C221.72 1236.97 221.72 1236.97 222.05 1235.05 C226.61 1208.41 231.01 1181.77 235.01 1155.04 C235.2 1153.75 235.4 1152.47 235.6 1151.14 C236.14 1147.52 236.68 1143.9 237.21 1140.29 C237.37 1139.22 237.53 1138.16 237.69 1137.07 C237.83 1136.09 237.98 1135.12 238.12 1134.12 C238.18 1133.7 238.18 1133.7 238.5 1131.57 C238.77 1129.08 238.8 1126.67 238.76 1124.17 C235.49 1124.83 232.92 1126.04 230 1127.64 C200.78 1143.49 170.06 1152.91 136.7 1153.88 C135.81 1153.9 134.92 1153.93 134 1153.96 C133.2 1153.97 132.41 1153.99 131.59 1154.01 C129.76 1154.17 129.76 1154.17 128.76 1155.17 C128.8 1157.75 128.92 1160.3 129.08 1162.88 C129.11 1163.28 129.11 1163.28 129.23 1165.32 C129.84 1175.14 130.71 1184.94 131.57 1194.74 C131.75 1196.77 131.92 1198.79 132.1 1200.81 C132.55 1206.09 133.02 1211.36 133.48 1216.64 C134.22 1225.09 134.95 1233.54 135.68 1241.99 C135.94 1244.91 136.19 1247.83 136.45 1250.75 C136.61 1252.57 136.77 1254.39 136.93 1256.21 C137 1257.08 137.08 1257.94 137.15 1258.83 C137.49 1262.75 137.8 1266.67 138.02 1270.6 C138.06 1271.29 138.1 1271.97 138.14 1272.67 C138.24 1274.46 138.32 1276.25 138.41 1278.05 C138.78 1281.36 139.47 1284.09 140.76 1287.17 C157.5 1297.93 181.39 1296.27 200.04 1292.5 C204.54 1291.3 207.95 1290.12 210.76 1286.17 C210.76 1285.51 210.76 1284.85 210.76 1284.17 C211.69 1284.81 212.61 1285.45 213.57 1286.11 C221.73 1291.38 233.1 1289.95 242.3 1287.99 C250.31 1286.09 258.35 1283.81 265.76 1280.17 C266.05 1280.03 266.05 1280.03 267.51 1279.31 C273.79 1275.63 275.34 1269.97 277.63 1263.36 C278.09 1262.09 278.54 1260.83 279 1259.57 C280.03 1256.73 281.04 1253.87 282.05 1251.01 C283.58 1246.67 285.14 1242.33 286.71 1238 C294.43 1216.7 301.83 1195.32 308.7 1173.73 C308.99 1172.8 309.29 1171.87 309.6 1170.91 C310.44 1168.27 311.27 1165.63 312.1 1162.98 C312.34 1162.22 312.58 1161.46 312.83 1160.67 C316.03 1150.39 316.03 1150.39 316.76 1145.17 C315.12 1143.53 313 1143.67 310.79 1143.32 C292.98 1140.44 277.77 1133.16 263.35 1122.42 C258.96 1119.17 258.96 1119.17 256.76 1119.17 Z " fill="#0F172A" transform="translate(1007.2421875,108.83203125)"/>
<path d="M0 0 C25.9 -1.28 53.91 9.31 73.37 26.23 C74.16 26.91 74.96 27.58 75.78 28.28 C97.6 47.3 113.19 72.2 125.42 98.22 C126.06 99.58 126.71 100.94 127.36 102.29 C152.84 155.11 168.8 217.65 172.37 276.23 C169.88 278.72 163.89 278.22 160.51 278.27 C159.54 278.27 158.57 278.26 157.58 278.26 C156.6 278.25 155.62 278.25 154.61 278.25 C153.87 278.24 153.13 278.24 152.37 278.23 C152.28 277.67 152.2 277.11 152.11 276.53 C144.07 223.53 144.07 223.53 137.37 198.23 C137.23 197.7 137.23 197.7 136.53 194.99 C124.32 148.13 105.81 95.76 71.2 60.34 C69.23 58.31 67.53 56.56 66.28 54 C65.07 51.65 63.73 51.34 61.37 50.23 C59.9 48.91 58.47 47.55 57.05 46.17 C40.24 30.83 16.29 21.44 -6.45 22.13 C-10.96 22.34 -15.45 22.71 -19.95 23.11 C-20.41 23.14 -20.41 23.14 -22.77 23.34 C-26.95 23.73 -30.95 24.23 -35.02 25.29 C-39.16 26.37 -42.39 26.38 -46.63 26.23 C-47.76 21.48 -47.76 21.48 -46.63 19.23 C-45.97 19.23 -45.31 19.23 -44.63 19.23 C-44.3 18.24 -43.97 17.25 -43.63 16.23 C-42.07 14.54 -42.07 14.54 -40.63 13.23 C-41.29 12.9 -41.95 12.57 -42.63 12.23 C-41.31 11.57 -39.99 10.91 -38.63 10.23 C-37.88 12.48 -37.88 12.48 -37.63 15.23 C-39.57 17.54 -39.57 17.54 -41.63 19.23 C-40.97 19.23 -40.31 19.23 -39.63 19.23 C-39.63 21.23 -39.63 21.23 -41.13 22.86 C-41.38 23.08 -41.38 23.08 -42.63 24.23 C-41.83 23.67 -41.03 23.12 -40.21 22.54 C-32.74 17.35 -25.22 12.25 -17.63 7.23 C-20.27 6.9 -22.91 6.57 -25.63 6.23 C-24.63 4.23 -24.63 4.23 -22.26 3.41 C-14.77 1.59 -7.64 0.67 0 0 Z " fill="#0F172A" transform="translate(928.6328125,325.76953125)"/>
</svg>
